<?xml version="1.0" standalone="no"?>
<!DOCTYPE svg PUBLIC "-//W3C//DTD SVG 20010904//EN"
 "http://www.w3.org/TR/2001/REC-SVG-20010904/DTD/svg10.dtd">
<svg version="1.0" xmlns="http://www.w3.org/2000/svg"
 width="900.000000pt" height="900.000000pt" viewBox="0 0 900.000000 900.000000"
 preserveAspectRatio="xMidYMid meet">

<g transform="translate(0.000000,900.000000) scale(0.100000,-0.100000)"
fill="#000000" stroke="none">
<path d="M3745 7469 c-44 -3 -111 -13 -150 -22 -38 -9 -135 -30 -215 -48 -80
-17 -217 -54 -305 -83 -183 -61 -495 -206 -565 -264 -25 -21 -63 -50 -85 -66
-22 -16 -85 -74 -140 -130 -209 -210 -305 -435 -292 -685 6 -125 23 -194 78
-310 69 -149 122 -217 262 -338 56 -49 122 -107 147 -131 54 -52 162 -115 183
-106 8 3 18 0 23 -7 5 -8 3 -10 -6 -4 -8 5 -11 4 -6 -3 4 -6 13 -9 21 -6 15 6
49 -9 78 -34 9 -8 29 -17 43 -18 15 -2 45 -12 68 -22 65 -31 260 -89 421 -126
81 -19 151 -39 155 -45 7 -13 95 -29 123 -23 9 2 14 8 11 14 -5 7 -2 8 7 2 8
-5 22 -7 32 -6 28 5 20 -4 -30 -37 -374 -238 -658 -572 -820 -961 -67 -160
-143 -429 -143 -504 0 -25 117 -23 122 2 3 14 5 13 10 -5 6 -22 4 -23 -55 -23
-105 0 -215 -42 -311 -119 -22 -17 -41 -29 -43 -27 -17 16 101 118 180 156
l59 28 -24 16 c-22 15 -29 15 -74 -1 -112 -38 -217 -122 -262 -209 l-21 -39 2
37 c1 20 6 36 12 35 5 -1 9 3 10 8 0 6 3 15 7 21 4 5 -4 48 -18 95 -31 103
-48 187 -64 303 -7 50 -16 83 -20 75 -11 -21 -47 -218 -64 -349 -24 -176 -38
-443 -31 -560 15 -248 43 -443 81 -558 20 -62 43 -113 51 -117 11 -4 13 -1 9
11 -3 8 -6 44 -6 79 0 53 -3 63 -17 61 -10 0 -19 7 -21 16 -2 10 1 18 7 18 6
0 11 -4 11 -10 0 -5 5 -10 10 -10 6 0 10 25 10 55 0 36 -4 55 -12 55 -9 0 -9
3 0 12 7 7 12 33 12 59 0 38 -4 48 -20 52 -20 5 -29 37 -10 37 6 0 10 -4 10
-10 0 -5 4 -10 10 -10 5 0 7 7 4 15 -4 8 -1 15 5 15 7 0 11 -42 11 -132 1
-176 8 -378 20 -513 5 -60 12 -146 15 -190 21 -285 65 -587 94 -642 70 -138
244 -162 501 -70 176 63 247 132 279 272 15 69 42 418 35 455 -10 46 11 37 49
-22 19 -29 68 -106 111 -170 119 -182 120 -187 120 -358 0 -80 -6 -181 -12
-225 -7 -44 -15 -107 -18 -140 -4 -33 -9 -54 -11 -47 -3 6 -9 12 -14 12 -25 0
-200 135 -330 256 l-36 33 -12 -22 c-17 -31 -49 -51 -64 -39 -7 5 -20 7 -30 3
-47 -17 240 -189 467 -280 23 -9 27 -16 22 -35 -4 -17 -1 -26 10 -30 20 -8 39
-8 32 0 -4 3 9 39 27 79 46 99 56 143 57 233 0 99 37 196 85 227 18 11 32 24
33 29 0 5 -15 25 -33 45 -50 55 -117 152 -207 301 -96 156 -137 241 -175 359
-22 68 -25 85 -14 92 8 5 23 5 34 1 11 -4 56 -6 100 -6 86 2 180 26 262 68 68
34 159 120 182 169 30 67 41 77 105 87 35 6 68 18 81 30 20 19 61 29 53 13 -2
-5 -29 -60 -61 -123 -115 -231 -127 -450 -33 -598 33 -53 41 -50 21 8 -29 81
-12 252 39 395 54 150 120 226 281 322 61 36 117 72 126 80 20 16 39 17 39 1
0 -7 12 -26 25 -43 l26 -30 -8 35 c-4 19 -8 60 -7 91 0 50 10 76 78 215 77
157 89 183 100 217 9 27 31 20 71 -24 20 -22 39 -38 42 -35 3 3 -15 39 -40 82
-26 43 -62 126 -83 192 -55 171 -49 242 27 306 25 21 34 24 46 15 9 -8 12 -21
8 -36 -3 -14 2 -38 14 -61 11 -20 22 -45 25 -55 3 -9 21 -25 41 -34 29 -14 41
-15 65 -6 33 12 25 19 101 -82 17 -22 49 -71 71 -108 33 -57 40 -80 45 -140 5
-75 2 -91 -65 -332 -17 -60 -43 -162 -57 -225 -73 -321 -174 -549 -341 -775
-90 -123 -224 -228 -374 -295 -52 -24 -122 -55 -155 -70 -33 -15 -77 -33 -97
-39 -52 -17 -47 -23 12 -15 55 7 47 16 70 -86 15 -68 24 -377 13 -437 -12 -63
0 -61 21 5 35 109 76 445 61 510 l-6 28 108 23 c164 35 148 43 149 -79 4 -252
26 -605 40 -654 5 -15 13 -17 46 -13 22 3 42 7 44 10 3 2 -1 48 -7 102 -7 61
-10 183 -6 329 5 222 6 235 36 334 17 57 39 118 48 135 31 62 137 233 189 307
29 42 69 109 89 149 43 84 30 87 150 -38 76 -79 84 -85 125 -87 25 -1 50 1 55
6 6 4 33 13 60 19 69 17 185 67 225 96 19 14 38 25 42 25 12 0 10 -183 -3
-237 -64 -266 -187 -485 -383 -678 -129 -127 -369 -277 -502 -314 -48 -13 -83
-35 -44 -28 90 18 249 77 383 142 256 124 493 313 683 541 166 199 346 559
384 769 51 277 -7 742 -124 997 -14 31 -26 60 -26 63 0 3 -8 25 -19 48 -10 23
-22 51 -27 62 -5 13 -10 -16 -14 -90 -3 -60 -12 -135 -19 -165 -15 -61 -69
-202 -81 -210 -4 -3 -17 -23 -28 -46 -20 -39 -49 -71 -56 -63 -2 2 -20 72 -41
154 -20 83 -45 170 -54 195 -10 25 -28 69 -39 99 -37 93 -120 233 -192 322
-38 47 -126 137 -196 200 -230 206 -297 328 -325 592 -11 100 -6 223 17 445
24 222 24 223 62 236 18 7 30 14 27 18 -9 9 32 21 45 13 6 -3 20 -3 31 0 17 6
19 9 8 16 -11 7 -10 9 4 9 9 0 19 0 23 -1 3 0 17 7 31 16 14 9 22 12 19 6 -5
-7 -1 -9 8 -5 9 3 14 10 11 14 -7 11 131 71 148 64 8 -3 21 2 30 10 8 8 18 12
22 8 4 -4 5 -1 3 6 -1 6 26 28 61 48 35 20 61 32 57 26 -12 -19 24 -3 94 44
73 48 121 92 163 147 16 21 36 45 46 55 9 9 41 46 71 82 29 36 59 70 65 75 17
16 72 101 79 123 4 11 9 29 11 39 2 10 13 43 23 73 34 98 45 186 39 294 -14
227 -94 390 -287 586 -152 154 -231 211 -434 314 -241 123 -510 206 -796 246
-165 24 -609 40 -765 29z m555 -190 c25 -6 77 -12 115 -14 39 -1 95 -10 125
-18 45 -13 155 -30 175 -28 3 0 29 -8 57 -18 91 -32 143 -46 156 -43 7 2 40
-6 73 -17 32 -12 64 -21 70 -21 14 0 179 -72 244 -107 28 -14 67 -41 88 -59
21 -17 50 -34 66 -37 17 -4 70 -48 147 -124 104 -103 124 -129 160 -203 80
-165 96 -221 97 -355 2 -107 -1 -129 -26 -203 -105 -309 -464 -590 -944 -736
-23 -7 -23 -7 -23 118 0 390 -126 766 -332 990 -60 66 -169 156 -189 156 -5 0
9 -25 31 -55 52 -70 106 -176 132 -257 29 -93 35 -264 13 -364 -52 -240 -246
-476 -563 -688 l-73 -49 -139 12 c-77 6 -161 15 -187 20 -102 20 -179 34 -208
37 -116 15 -222 45 -465 133 -225 81 -451 231 -604 401 -35 39 -102 163 -129
240 -27 75 -31 97 -29 183 1 67 10 133 28 210 26 106 29 114 79 167 28 30 67
83 86 118 18 34 39 62 45 62 7 0 14 4 16 8 2 4 23 23 48 42 25 19 50 42 57 50
18 25 151 112 228 150 39 19 88 47 110 62 23 14 54 30 70 33 17 4 75 26 130
50 55 23 145 53 200 65 55 12 111 26 125 31 14 4 61 11 105 14 44 3 112 12
150 20 39 8 104 15 145 16 41 0 95 4 120 8 67 12 369 12 420 0z m-274 -2635
c61 -25 153 -93 208 -151 92 -99 188 -280 213 -403 4 -21 14 -35 30 -41 33
-12 44 -11 42 4 -4 28 2 37 26 37 14 0 25 -5 25 -11 0 -7 -9 -9 -21 -6 -18 5
-20 2 -15 -19 5 -19 3 -24 -13 -24 -46 0 -34 -49 13 -52 21 -1 15 -3 -19 -7
-50 -6 -50 -6 -95 43 -56 61 -127 96 -198 96 -69 0 -111 -19 -150 -66 -22 -26
-32 -33 -32 -21 0 15 28 45 76 82 11 8 14 15 7 15 -7 0 -13 9 -13 21 0 18 4
20 27 15 36 -10 43 5 43 94 0 126 -59 257 -161 356 -34 33 -48 54 -35 54 2 0
21 -7 42 -16z m14 -589 c0 -8 -4 -15 -10 -15 -5 0 -10 7 -10 15 0 8 5 15 10
15 6 0 10 -7 10 -15z m603 -16 c-4 -4 -28 -5 -53 -1 l-45 7 45 5 c49 6 67 3
53 -11z m-817 -9 c19 0 34 -3 34 -7 0 -5 -26 -8 -58 -9 -72 0 -139 -36 -173
-91 -13 -20 -25 -31 -27 -25 -2 6 6 25 17 40 11 16 18 32 14 36 -3 3 2 6 13 7
10 0 13 3 7 6 -7 2 -13 9 -13 14 0 4 7 6 15 3 8 -4 30 0 48 9 49 22 61 26 75
21 8 -2 29 -4 48 -4z m474 -10 c45 -23 70 -63 70 -113 0 -39 -36 -163 -49
-172 -5 -2 -25 2 -45 10 -51 21 -108 19 -140 -6 -29 -23 -26 -45 4 -29 21 11
80 13 104 4 35 -13 39 -43 12 -88 -34 -57 -72 -74 -119 -51 -53 25 -70 49 -75
109 -5 66 14 215 35 267 34 85 117 113 203 69z m405 10 c8 -13 -15 -13 -35 0
-12 8 -11 10 7 10 12 0 25 -4 28 -10z m105 -35 c14 -26 30 -33 30 -14 0 5 5 7
11 3 8 -4 7 -9 -2 -15 -11 -7 -7 -14 16 -34 17 -13 40 -24 52 -25 15 0 23 -7
25 -22 2 -14 9 -22 18 -20 8 2 12 0 8 -3 -4 -4 7 -28 24 -54 29 -43 28 -42
-26 16 -31 34 -84 83 -119 108 -34 26 -62 51 -62 55 0 5 -4 12 -9 17 -5 5 -6
3 -2 -4 4 -8 1 -13 -8 -13 -22 0 -29 18 -9 23 34 9 40 7 53 -18z m-834 -11
c23 -16 26 -15 44 1 23 21 25 15 8 -18 -7 -12 -14 -23 -14 -25 -2 -3 -73 43
-83 54 -12 11 23 2 45 -12z m-636 -34 c0 -5 -2 -10 -4 -10 -3 0 -8 5 -11 10
-3 6 -1 10 4 10 6 0 11 -4 11 -10z m130 -35 c0 -2 -25 -3 -55 -4 -65 0 -141
-31 -181 -72 -33 -34 -52 -39 -30 -7 9 12 16 30 16 40 0 10 4 18 10 18 5 0 7
7 4 15 -7 18 0 19 26 3 16 -10 26 -10 52 1 53 21 101 28 131 18 15 -5 27 -10
27 -12z m442 -1 c39 -20 58 -64 68 -156 7 -74 -3 -228 -16 -250 -4 -5 -18 2
-34 17 -49 47 -141 40 -170 -14 -16 -30 -12 -33 20 -16 37 19 53 19 91 -1 53
-27 73 -106 44 -169 -43 -89 -162 -67 -215 40 -24 49 -25 55 -25 272 l0 223
31 31 c49 49 136 59 206 23z m-362 -29 c7 -8 21 -15 31 -15 11 0 19 -4 19 -8
0 -20 -14 -19 -48 4 -47 32 -48 34 -30 34 9 0 21 -7 28 -15z m1415 5 c3 -5 1
-10 -4 -10 -6 0 -11 5 -11 10 0 6 2 10 4 10 3 0 8 -4 11 -10z m65 -14 c0 -3
-4 -8 -10 -11 -5 -3 -10 -1 -10 4 0 6 5 11 10 11 6 0 10 -2 10 -4z m-429 -35
c23 -23 29 -39 29 -70 0 -46 -11 -53 -28 -16 -17 36 -29 31 -24 -11 9 -73 -75
-112 -134 -61 l-27 24 14 64 c18 81 35 99 95 99 37 0 51 -5 75 -29z m-1113
-25 c51 -26 63 -50 77 -148 16 -110 24 -198 18 -198 -2 0 -21 11 -41 25 -36
24 -74 31 -107 19 -20 -8 -55 -75 -55 -105 0 -20 3 -19 33 14 17 20 39 37 47
38 41 4 62 -4 95 -36 41 -42 46 -83 16 -129 -27 -40 -57 -55 -113 -56 -86 0
-122 52 -174 250 -17 66 -27 134 -28 182 -1 72 1 78 29 108 17 18 39 36 50 40
32 14 124 11 153 -4z m-478 -6 c0 -5 12 -10 28 -11 15 -1 1 -7 -35 -15 -35 -7
-76 -20 -92 -29 -42 -21 -64 -20 -56 4 3 11 1 22 -5 26 -5 3 -10 11 -10 17 0
6 10 -1 23 -15 16 -19 26 -24 37 -17 13 8 13 10 1 10 -11 0 -12 3 -3 12 8 8
15 8 24 1 15 -12 58 0 58 17 0 5 7 10 15 10 8 0 15 -4 15 -10z m95 -20 c3 -5
-1 -10 -9 -10 -9 0 -16 5 -16 10 0 6 4 10 9 10 6 0 13 -4 16 -10z m73 1 c9 -5
11 -17 6 -34 -8 -32 -8 -32 -38 -6 -37 33 -10 67 32 40z m-341 -86 c-7 -5 -22
-23 -32 -38 -29 -45 -29 -22 1 39 26 53 28 55 36 33 6 -17 5 -27 -5 -34z m237
-16 c28 -22 75 -108 120 -219 14 -35 26 -65 26 -67 0 -2 -14 -3 -30 -3 -45 0
-85 -24 -100 -60 -17 -40 -6 -49 25 -20 29 27 100 33 115 10 14 -21 12 -80 -3
-110 -7 -14 -29 -33 -50 -43 -31 -16 -43 -17 -69 -8 -53 19 -66 39 -109 175
-22 72 -44 135 -49 139 -4 5 -10 -15 -14 -42 -8 -58 -19 -63 -59 -26 -25 24
-27 32 -27 103 0 97 18 129 91 166 64 31 98 33 133 5z m1724 -55 c48 -58 68
-102 54 -116 -30 -30 -85 33 -106 125 -9 39 16 35 52 -9z m-2031 -76 c-3 -7
-5 -2 -5 12 0 14 2 19 5 13 2 -7 2 -19 0 -25z m1604 -8 c51 -14 90 -59 96
-112 3 -29 0 -49 -11 -63 -15 -19 -15 -19 -16 8 0 33 -26 87 -41 87 -6 0 -8
-9 -4 -21 17 -54 -31 -139 -79 -139 -62 0 -124 81 -110 143 10 48 26 68 69 88
47 22 49 22 96 9z m-302 -143 c13 -46 21 -96 19 -112 -3 -27 -9 -32 -68 -51
-36 -12 -67 -20 -68 -18 -2 1 10 31 27 66 17 35 36 93 43 131 7 37 15 67 19
67 3 0 16 -37 28 -83z m538 -90 c28 -89 28 -87 -2 -87 -35 0 -75 42 -75 77 0
30 37 99 47 89 4 -3 17 -39 30 -79z m-2405 -139 c-6 -6 -9 2 -7 24 4 51 8 56
12 19 3 -18 0 -38 -5 -43z m583 -46 c9 -42 20 -81 24 -85 5 -4 41 1 82 13 40
11 79 20 85 20 10 0 64 -159 64 -187 0 -12 -16 -17 -123 -44 -26 -6 -49 -14
-51 -18 -3 -4 5 -46 17 -93 11 -48 18 -90 15 -93 -9 -9 -158 -48 -164 -42 -3
2 -14 42 -25 88 -11 46 -23 87 -27 91 -4 4 -45 -1 -91 -12 -46 -11 -86 -18
-89 -16 -8 9 -43 170 -39 181 3 6 36 19 74 29 101 26 98 21 74 110 -31 113
-33 109 57 132 44 11 82 16 89 11 6 -4 19 -43 28 -85z m907 73 c29 -14 62 -25
73 -25 45 0 -12 -21 -214 -80 -123 -35 -223 -59 -236 -56 -16 4 -29 23 -45 61
-12 31 -21 57 -19 59 2 2 28 11 57 21 45 14 60 15 97 5 33 -9 55 -9 100 0 44
9 108 28 132 39 0 1 25 -10 55 -24z m-1512 -45 c0 -5 -4 -10 -10 -10 -5 0 -10
5 -10 10 0 6 5 10 10 10 6 0 10 -4 10 -10z m25 -9 c3 -5 1 -12 -5 -16 -5 -3
-10 1 -10 9 0 18 6 21 15 7z m3195 0 c0 -6 -4 -13 -10 -16 -5 -3 -10 1 -10 9
0 9 5 16 10 16 6 0 10 -4 10 -9z m-3201 -153 c0 -74 -4 -115 -8 -103 -5 11 -8
45 -6 75 1 30 3 76 3 103 1 26 4 47 7 47 3 0 5 -55 4 -122z m1711 97 c19 -23
7 -49 -33 -69 -74 -36 -147 -31 -147 10 0 47 149 96 180 59z m431 -12 c134
-53 35 -225 -131 -227 -82 -1 -140 42 -140 102 0 25 35 78 65 98 67 44 140 54
206 27z m1099 11 c0 -3 -6 -12 -14 -19 -17 -18 -29 -8 -13 11 12 14 27 18 27
8z m30 -84 c0 -5 -7 -10 -15 -10 -8 0 -15 5 -15 10 0 6 7 10 15 10 8 0 15 -4
15 -10z m-3303 -32 c-3 -8 -6 -5 -6 6 -1 11 2 17 5 13 3 -3 4 -12 1 -19z
m3323 -8 c0 -5 -2 -10 -4 -10 -3 0 -8 5 -11 10 -3 6 -1 10 4 10 6 0 11 -4 11
-10z m60 -59 c0 -11 -31 -24 -39 -16 -3 3 1 10 9 15 19 12 30 12 30 1z m-3354
-89 c-11 -10 -15 4 -8 28 l7 25 3 -23 c2 -13 1 -26 -2 -30z m1356 38 c20 -6
49 -25 63 -42 52 -61 16 -142 -85 -193 -118 -59 -259 -29 -276 59 -20 109 159
214 298 176z m848 -21 c-22 -40 -112 -74 -169 -63 -38 8 -41 24 -3 24 42 0 96
18 133 44 38 26 54 24 39 -5z m1190 -3 c0 -3 -4 -8 -10 -11 -5 -3 -10 -1 -10
4 0 6 5 11 10 11 6 0 10 -2 10 -4z m-3390 -68 c0 -43 -12 -43 -25 0 -4 14 -2
22 5 22 6 0 8 5 5 10 -3 6 -1 10 4 10 6 0 11 -19 11 -42z m2204 -29 c-48 -52
-118 -79 -201 -79 -76 0 -157 21 -183 47 -13 14 -12 15 15 9 156 -32 232 -26
330 28 33 18 62 32 64 30 3 -2 -9 -18 -25 -35z m-2005 -149 c40 -76 92 -129
158 -162 64 -31 74 -33 173 -33 99 0 109 2 173 33 80 39 135 99 190 204 l38
73 -6 -45 c-8 -64 -56 -161 -105 -214 -109 -118 -307 -154 -458 -84 -119 56
-211 188 -218 315 l-4 68 23 -65 c13 -36 29 -76 36 -90z m1387 29 c-51 -199
-287 -338 -472 -279 -65 21 -63 30 7 30 213 1 379 110 451 296 28 74 37 44 14
-47z m1834 49 c0 -13 -23 -5 -28 10 -2 7 2 10 12 6 9 -3 16 -11 16 -16z
m-1967 -71 c-11 -17 -41 -45 -68 -62 -40 -25 -59 -30 -109 -30 -76 0 -85 17
-15 28 71 10 146 53 178 101 23 36 26 37 29 18 2 -13 -5 -37 -15 -55z m2001
-14 c3 -8 -2 -13 -14 -13 -11 0 -20 4 -20 9 0 5 -3 17 -6 26 -6 15 -4 15 14 4
12 -8 24 -19 26 -26z m31 -111 c-8 -9 -25 20 -18 31 3 5 10 2 15 -7 6 -10 7
-20 3 -24z m-3344 -267 c17 -93 35 -190 40 -215 5 -25 12 -71 14 -103 8 -96
36 -252 67 -367 33 -127 90 -219 146 -241 13 -5 20 -13 17 -19 -10 -16 -83
-12 -122 7 -39 18 -87 85 -103 143 -15 53 -78 406 -85 475 -7 71 -15 515 -9
500 2 -5 18 -86 35 -180z m2752 56 c60 -62 127 -97 210 -106 31 -4 57 -10 57
-14 0 -4 -31 -19 -70 -34 -128 -50 -189 -34 -279 73 -39 47 -41 52 -32 87 5
21 12 52 16 68 l7 30 20 -25 c11 -14 43 -49 71 -79z m667 -1 c0 -5 -4 -10 -10
-10 -5 0 -10 5 -10 10 0 6 5 10 10 10 6 0 10 -4 10 -10z m0 -60 c0 -5 -4 -10
-10 -10 -5 0 -10 5 -10 10 0 6 5 10 10 10 6 0 10 -4 10 -10z m-2660 -248 c0
-9 -7 -49 -15 -87 -8 -39 -15 -97 -15 -130 0 -90 -36 -261 -64 -310 -28 -47
-65 -84 -53 -52 15 41 50 235 49 277 -1 40 45 239 69 298 10 26 29 29 29 4z
m-125 -782 c3 -5 1 -10 -4 -10 -6 0 -11 5 -11 10 0 6 2 10 4 10 3 0 8 -4 11
-10z"/>
<path d="M3150 3770 c0 -5 5 -10 10 -10 6 0 10 5 10 10 0 6 -4 10 -10 10 -5 0
-10 -4 -10 -10z"/>
<path d="M2665 3170 c-17 -7 -18 -9 -4 -14 15 -7 69 8 69 19 0 8 -42 5 -65 -5z"/>
<path d="M2970 2995 c0 -20 30 -79 36 -72 8 7 -18 87 -28 87 -4 0 -8 -7 -8
-15z"/>
<path d="M2787 2965 c5 -29 1 -41 -17 -60 -13 -14 -32 -25 -42 -25 -24 0 -23
-17 1 -30 36 -19 78 -12 100 16 31 40 24 89 -18 121 -25 20 -30 15 -24 -22z"/>
<path d="M2511 2875 c0 -16 6 -41 14 -55 l14 -25 0 25 c0 14 -6 39 -14 55
l-13 30 -1 -30z"/>
<path d="M2794 2654 c-18 -14 -17 -15 20 -10 22 3 44 10 50 16 17 17 -48 12
-70 -6z"/>
<path d="M2180 2220 c0 -5 5 -10 11 -10 5 0 7 5 4 10 -3 6 -8 10 -11 10 -2 0
-4 -4 -4 -10z"/>
</g>
</svg>
